<svg width="119" height="48" viewBox="0 0 119 48" fill="none" xmlns="http://www.w3.org/2000/svg">
<path fill-rule="evenodd" clip-rule="evenodd" d="M5.19841 1.29972L0 20.4966H4.49211L5.60612 16.0516H11.7096L12.8124 20.4966H17.3045L12.1343 1.29972H5.19841ZM10.9293 12.9062L8.67337 3.81285L6.3944 12.9062H10.9293Z" fill="white"/>
<path d="M23.2971 20.5226C24.1258 20.7132 24.9875 20.8086 25.8821 20.8086C26.7485 20.8086 27.5914 20.7219 28.4107 20.5486C29.2395 20.384 29.9881 20.1284 30.6568 19.7818C31.3348 19.4265 31.8716 18.9673 32.2672 18.4041C32.6627 17.8409 32.8604 17.165 32.8604 16.3765C32.8604 15.614 32.6674 14.9858 32.2813 14.4919C31.9046 13.9893 31.4055 13.5864 30.7839 13.2832C30.1718 12.9712 29.5126 12.733 28.8063 12.5683C28.1094 12.395 27.4454 12.2607 26.8145 12.1654C26.1458 12.0614 25.5572 11.9531 25.0487 11.8405C24.5402 11.7192 24.1446 11.5675 23.8621 11.3856C23.5796 11.1949 23.4383 10.9523 23.4383 10.6577C23.4383 10.3545 23.5702 10.1205 23.8339 9.95588C24.0975 9.78258 24.4177 9.66127 24.7944 9.59195C25.1805 9.51397 25.5525 9.47498 25.9104 9.47498C26.3059 9.47498 26.6873 9.5313 27.0546 9.64394C27.4219 9.74792 27.7232 9.90822 27.9587 10.1248C28.2035 10.3415 28.326 10.6231 28.326 10.9697V11.1256H32.6344V10.9437C32.6344 9.9992 32.3189 9.19337 31.688 8.52618C31.057 7.85032 30.233 7.33477 29.2159 6.97951C28.1988 6.61559 27.1017 6.43363 25.9245 6.43363C24.6908 6.43363 23.5608 6.59826 22.5343 6.92752C21.5078 7.25678 20.6837 7.74201 20.0622 8.38321C19.4501 9.02441 19.144 9.81291 19.144 10.7487C19.144 11.4506 19.3229 12.0484 19.6808 12.5423C20.0386 13.0276 20.5142 13.4305 21.1075 13.7511C21.7008 14.063 22.3506 14.3143 23.0569 14.5049C23.7632 14.6955 24.4601 14.8428 25.1476 14.9468C26.3624 15.1374 27.243 15.3281 27.7892 15.5187C28.3448 15.7093 28.6226 16.0342 28.6226 16.4935C28.6226 16.7794 28.4908 17.0177 28.2271 17.2083C27.9728 17.3903 27.6432 17.5246 27.2383 17.6112C26.8427 17.6892 26.4284 17.7282 25.9952 17.7282C25.1664 17.7282 24.5072 17.6112 24.0175 17.3773C23.5372 17.1433 23.2971 16.7751 23.2971 16.2725V16.0906H18.9462V16.3245C18.9462 17.0697 19.1346 17.7239 19.5113 18.2871C19.8974 18.8416 20.4153 19.3052 21.0651 19.6778C21.7244 20.0504 22.4683 20.332 23.2971 20.5226Z" fill="white"/>
<path d="M46.1518 20.4966H50.5309V12.0614C50.5309 10.2938 50.0695 8.9161 49.1465 7.92831C48.2236 6.93185 46.844 6.43363 45.0076 6.43363C43.7645 6.43363 42.6674 6.68057 41.7162 7.17447C41.0224 7.53831 40.4386 8.00561 39.9646 8.57635V0.18196H35.5855V20.4966H39.9646V13.0622C39.9646 12.421 40.087 11.8621 40.3318 11.3856C40.5861 10.909 40.9581 10.5408 41.4478 10.2808C41.9375 10.0122 42.5402 9.87789 43.256 9.87789C44.3578 9.87789 45.1159 10.1682 45.5303 10.7487C45.9446 11.3206 46.1518 12.1351 46.1518 13.1922V20.4966Z" fill="white"/>
<path d="M53.7949 6.69357V20.4966H58.1881V13.985C58.1881 13.5085 58.2541 13.0362 58.3859 12.5683C58.5178 12.1004 58.7344 11.6758 59.0357 11.2946C59.3465 10.9047 59.7561 10.5927 60.2647 10.3588C60.7732 10.1248 61.4042 10.0079 62.1576 10.0079C62.619 10.0079 62.9957 10.0555 63.2877 10.1508C63.5796 10.2461 63.768 10.3155 63.8527 10.3588L64.5732 6.74556C64.4884 6.70224 64.2718 6.64158 63.9233 6.5636C63.5843 6.47695 63.1135 6.43363 62.5107 6.43363C61.7385 6.43363 61.051 6.54627 60.4483 6.77156C59.855 6.99684 59.3418 7.31311 58.9086 7.72035C58.637 7.97026 58.3968 8.24912 58.1881 8.55693V6.69357H53.7949Z" fill="white"/>
<path fill-rule="evenodd" clip-rule="evenodd" d="M68.6752 20.3017C69.5322 20.6223 70.5069 20.7826 71.5994 20.7826C72.5317 20.7826 73.3981 20.6743 74.1986 20.4576C75.0085 20.2323 75.7053 19.9161 76.2892 19.5088C76.4993 19.3616 76.6886 19.2046 76.8574 19.0378C76.8974 19.1775 76.9435 19.3172 76.9955 19.4568C77.0897 19.7081 77.2027 19.9291 77.3346 20.1197C77.4758 20.3103 77.5794 20.436 77.6453 20.4966H81.9538C81.8596 20.4186 81.7419 20.28 81.6006 20.0807C81.4594 19.8814 81.3417 19.6301 81.2475 19.3269C81.1627 19.0583 81.1062 18.7637 81.078 18.4431C81.0592 18.1138 81.0497 17.7715 81.0497 17.4163V11.4506C81.0497 10.3155 80.706 9.37967 80.0185 8.64316C79.3405 7.90665 78.4411 7.35643 77.3204 6.99251C76.1998 6.61992 74.9802 6.43363 73.6618 6.43363C72.2492 6.43363 70.9825 6.63292 69.8618 7.0315C68.7412 7.42142 67.8512 7.99763 67.192 8.76013C66.5422 9.52263 66.2173 10.4584 66.2173 11.5675H70.5258C70.5258 10.883 70.7895 10.3761 71.3168 10.0469C71.8536 9.70893 72.6259 9.53996 73.6335 9.53996C74.5847 9.53996 75.3239 9.68727 75.8513 9.98187C76.3881 10.2765 76.6565 10.6794 76.6565 11.1906V11.2166C76.6565 11.5199 76.341 11.7322 75.7101 11.8535C75.0885 11.9748 73.9537 12.1091 72.3057 12.2564C71.1756 12.3604 70.1255 12.577 69.1555 12.9062C68.195 13.2268 67.4227 13.6947 66.8389 14.3099C66.255 14.9251 65.963 15.7223 65.963 16.7014C65.963 17.5679 66.2032 18.3044 66.6835 18.911C67.1638 19.5175 67.8277 19.9811 68.6752 20.3017ZM74.693 17.4293C74.0997 17.6546 73.4593 17.7672 72.7718 17.7672C71.9713 17.7672 71.3686 17.6502 70.9637 17.4163C70.5587 17.1737 70.3563 16.8141 70.3563 16.3375C70.3563 15.835 70.5917 15.4797 71.0626 15.2717C71.5428 15.0551 72.2633 14.9035 73.2239 14.8168C74.0338 14.7389 74.8437 14.6349 75.6536 14.5049C76.0326 14.4408 76.3904 14.3692 76.7271 14.2902V14.4009C76.7271 15.1981 76.5388 15.8436 76.1621 16.3375C75.7854 16.8314 75.2957 17.1953 74.693 17.4293Z" fill="white"/>
<path d="M86.0766 9.81291V20.4966H90.4416V9.81291H94.4676V6.69357H90.4416V5.92674C90.4416 5.53682 90.484 5.17723 90.5688 4.84796C90.6535 4.51004 90.7995 4.21977 91.0067 3.97715C91.2138 3.72587 91.4964 3.53525 91.8542 3.40527C92.2121 3.2753 92.6641 3.21031 93.2103 3.21031C93.5399 3.21031 93.846 3.23198 94.1285 3.2753C94.4205 3.31862 94.6229 3.35762 94.736 3.39228V0.259944C94.6324 0.21662 94.4252 0.164631 94.1144 0.103976C93.813 0.0346588 93.3516 0 92.73 0C92.1462 0 91.5435 0.0563209 90.9219 0.168963C90.3098 0.272941 89.7118 0.454903 89.1279 0.714847C88.5534 0.966127 88.0355 1.31272 87.574 1.75463C87.1126 2.18787 86.7453 2.73375 86.4722 3.39228C86.2085 4.04214 86.0766 4.8263 86.0766 5.74477V6.69357H82.9548V9.81291H86.0766Z" fill="white"/>
<path d="M99.2576 20.2887C99.9451 20.6006 100.821 20.7566 101.885 20.7566C102.836 20.7566 103.689 20.6006 104.442 20.2887C105.205 19.9767 105.85 19.5435 106.377 18.9889C106.529 18.8273 106.67 18.6582 106.801 18.4816V20.4966H111.18V6.69357H106.801V13.6861C106.801 14.284 106.674 14.8645 106.42 15.4277C106.165 15.9909 105.798 16.4545 105.318 16.8184C104.837 17.1737 104.254 17.3513 103.566 17.3513C102.86 17.3513 102.314 17.204 101.927 16.9094C101.551 16.6148 101.292 16.2249 101.151 15.7396C101.009 15.2544 100.939 14.7215 100.939 14.141V6.69357H96.5595V15.2068C96.5595 15.8826 96.6396 16.5498 96.7997 17.2083C96.9598 17.8669 97.2376 18.4647 97.6331 19.0019C98.0287 19.5392 98.5702 19.9681 99.2576 20.2887Z" fill="white"/>
<path d="M119 20.4966V0.18196H114.677V20.4966H119Z" fill="white"/>
<path d="M23.2233 27.8171H15.8071L12.1633 44.2464L8.5463 27.8171H1.13009V46.988H5.2973V30.5522L9.35149 46.988H15.0867L19.0703 30.5964V46.988H23.2233V27.8171Z" fill="white"/>
<path fill-rule="evenodd" clip-rule="evenodd" d="M29.0007 46.7931C29.8577 47.1137 30.8324 47.274 31.9248 47.274C32.8571 47.274 33.7235 47.1657 34.524 46.949C35.3339 46.7238 36.0308 46.4075 36.6147 46.0002C36.8247 45.853 37.0141 45.696 37.1828 45.5292C37.2229 45.6689 37.2689 45.8086 37.321 45.9483C37.4152 46.1995 37.5282 46.4205 37.66 46.6111C37.8013 46.8017 37.9049 46.9274 37.9708 46.988H42.2793C42.1851 46.9101 42.0674 46.7714 41.9261 46.5721C41.7848 46.3728 41.6671 46.1216 41.573 45.8183C41.4882 45.5497 41.4317 45.2551 41.4034 44.9345C41.3846 44.6052 41.3752 44.2629 41.3752 43.9077V37.942C41.3752 36.8069 41.0315 35.8711 40.344 35.1346C39.6659 34.3981 38.7666 33.8478 37.6459 33.4839C36.5252 33.1113 35.3057 32.925 33.9872 32.925C32.5746 32.925 31.308 33.1243 30.1873 33.5229C29.0666 33.9128 28.1767 34.489 27.5175 35.2515C26.8677 36.014 26.5428 36.9498 26.5428 38.0589H30.8512C30.8512 37.3744 31.1149 36.8675 31.6423 36.5383C32.1791 36.2003 32.9513 36.0314 33.959 36.0314C34.9101 36.0314 35.6494 36.1787 36.1768 36.4733C36.7136 36.7679 36.982 37.1708 36.982 37.682V37.708C36.982 38.0113 36.6665 38.2236 36.0355 38.3449C35.414 38.4662 34.2792 38.6005 32.6311 38.7478C31.501 38.8518 30.451 39.0684 29.481 39.3977C28.5204 39.7183 27.7482 40.1862 27.1643 40.8014C26.5804 41.4166 26.2885 42.2137 26.2885 43.1928C26.2885 44.0593 26.5286 44.7958 27.0089 45.4024C27.4892 46.0089 28.1531 46.4725 29.0007 46.7931ZM35.0184 43.9207C34.4251 44.146 33.7848 44.2586 33.0973 44.2586C32.2968 44.2586 31.6941 44.1416 31.2891 43.9077C30.8842 43.6651 30.6817 43.3055 30.6817 42.8289C30.6817 42.3264 30.9171 41.9711 31.388 41.7631C31.8683 41.5465 32.5887 41.3949 33.5493 41.3082C34.3592 41.2303 35.1691 41.1263 35.979 40.9963C36.358 40.9322 36.7159 40.8606 37.0526 40.7817V40.8923C37.0526 41.6895 36.8642 42.335 36.4876 42.8289C36.1109 43.3228 35.6211 43.6867 35.0184 43.9207Z" fill="white"/>
<path d="M49.1143 46.988V26.6734H44.7917V46.988H49.1143Z" fill="white"/>
<path d="M52.439 33.185V46.988H56.7758V33.185H52.439Z" fill="white"/>
<path d="M52.8204 30.4426C53.329 30.7718 53.9223 30.9365 54.6003 30.9365C55.2878 30.9365 55.8811 30.7762 56.3802 30.4556C56.8888 30.1263 57.143 29.6584 57.143 29.0519C57.143 28.4453 56.8888 27.9774 56.3802 27.6482C55.8811 27.3189 55.2878 27.1543 54.6003 27.1543C53.9223 27.1543 53.329 27.3189 52.8204 27.6482C52.3213 27.9774 52.0718 28.4453 52.0718 29.0519C52.0718 29.6497 52.3213 30.1133 52.8204 30.4426Z" fill="white"/>
<path d="M60.0027 26.6734V46.988H64.1558V41.6069L65.4435 40.5323L69.6508 46.988H74.2559L68.2229 38.2494L74.3831 33.185H69.0152L64.1558 37.1813V26.6734H60.0027Z" fill="white"/>
</svg>
